<svg fill="none" xmlns="http://www.w3.org/2000/svg" viewBox="0 0 20 20">
  <path fill-rule="evenodd" clip-rule="evenodd" d="M10.0869 2.5c-2.4203 0-4.2914 1.83-4.2914 3.9787v2.0369c0 .2681-.1102.505-.1676.6216-.0746.1514-.1722.312-.2762.4693-.2097.3172-.4903.6881-.7892 1.0631-.3836.4811-.4653 1.0382-.343 1.466.116.4064.4175.7244.9319.8097 1.2972.2151 2.9556.388 4.9355.388 2.1258 0 3.7506-.1993 4.9255-.4331.4174-.083.6587-.3352.763-.6614.1115-.3485.0723-.8214-.2082-1.2716-.1349-.2163-.2798-.4374-.4258-.659l-.0448-.0681c-.1292-.1961-.2594-.3936-.3754-.5772-.1279-.2024-.2522-.4093-.3467-.5983-.0738-.1476-.2077-.4294-.2077-.7313V6.4266c0-2.1823-1.6946-3.9266-4.0799-3.9266Zm-5.958 3.9787c0-3.1665 2.7176-5.6454 5.958-5.6454 3.2752 0 5.7465 2.4603 5.7465 5.5933v1.8248c.007.0162.0172.0387.0319.068.0563.1127.1448.2631.265.4534.1067.169.2276.3524.3586.5511l.0444.0674c.1458.2214.3012.4583.4483.6944.516.8279.6548 1.8058.3812 2.6609-.2806.8774-.9873 1.5818-2.0251 1.7883-1.2863.2559-3.0202.4651-5.2508.4651-2.0772 0-3.827-.1814-5.2082-.4105-1.1845-.1964-1.9788-1.0052-2.2618-1.9961-.277-.9695-.0613-2.0802.6424-2.9628.2877-.3608.5327-.687.702-.9432.0819-.1237.136-.2162.1675-.2788v-1.93Zm.0243 1.8754a.0635.0635 0 0 1-.0041.0113.0717.0717 0 0 1 .0041-.0113Zm9.0013 7.7966a.8333.8333 0 0 1-.1384 1.1703c-1.701 1.3413-4.3133 1.3583-6.0327-.0006a.8333.8333 0 1 1 1.0334-1.3075c1.109.8763 2.8668.8672 3.9673-.0006a.8334.8334 0 0 1 1.1704.1384Z" fill="#0F1729" fill-opacity=".74"/>
</svg>