<svg fill="none" xmlns="http://www.w3.org/2000/svg" viewBox="0 0 49 48">
  <path fill-rule="evenodd" clip-rule="evenodd" d="M24.5 12c-4.4183 0-8 3.5817-8 8s3.5817 8 8 8 8-3.5817 8-8-3.5817-8-8-8Zm0 4c-2.2091 0-4 1.7909-4 4 0 2.2091 1.7909 4 4 4 2.2091 0 4-1.7909 4-4 0-2.2091-1.7909-4-4-4Z" fill="#256CFA"/>
  <path fill-rule="evenodd" clip-rule="evenodd" d="M22.6801 45.1915c.2317.1592.416.2817.545.3661l.2124.1368a2.002 2.002 0 0 0 2.1238.0008l.2136-.1376c.129-.0844.3133-.2069.545-.3661.4631-.3181 1.1171-.7834 1.8982-1.3833 1.5592-1.1973 3.642-2.9439 5.7313-5.1411C38.0713 34.3322 42.5 27.9449 42.5 20.3636c0-4.856-1.8858-9.5219-5.2563-12.969C33.8717 3.9459 29.2886 2 24.5 2c-4.7886 0-9.3717 1.946-12.7437 5.3946C8.3858 10.8417 6.5 15.5076 6.5 20.3636c0 7.5813 4.4287 13.9686 8.5506 18.3035 2.0893 2.1972 4.1721 3.9438 5.7313 5.1411.7811.5999 1.4351 1.0652 1.8982 1.3833ZM24.5 6c-3.6983 0-7.2545 1.5021-9.8837 4.191C11.9857 12.8815 10.5 16.5398 10.5 20.3636c0 6.0378 3.5713 11.4687 7.4494 15.5472 1.9107 2.0095 3.8279 3.6185 5.2687 4.725.4912.3771.925.6944 1.2819.9478a42.8656 42.8656 0 0 0 1.2819-.9478c1.4408-1.1065 3.358-2.7155 5.2687-4.725C34.9287 31.8323 38.5 26.4014 38.5 20.3636c0-3.8238-1.4857-7.4821-4.1163-10.1726C31.7545 7.5021 28.1983 6 24.5 6Z" fill="#256CFA"/>
</svg>