<svg fill="none" xmlns="http://www.w3.org/2000/svg" viewBox="0 0 28 28">
  <path fill-rule="evenodd" clip-rule="evenodd" d="M6.275 2.333h2.617c.462 0 .877 0 1.222.029.37.03.763.1 1.147.3.533.276.967.71 1.244 1.244.2.383.269.776.3 1.146.028.346.028.761.028 1.223v2.617c0 .462 0 .877-.028 1.222-.031.37-.1.763-.3 1.147a2.917 2.917 0 0 1-1.244 1.244c-.384.2-.777.269-1.147.3-.345.028-.76.028-1.222.028H6.275c-.462 0-.877 0-1.223-.028-.37-.031-.763-.1-1.146-.3a2.917 2.917 0 0 1-1.244-1.244c-.2-.384-.27-.777-.3-1.147-.029-.345-.029-.76-.029-1.222V6.275c0-.462 0-.877.029-1.223.03-.37.1-.763.3-1.146a2.917 2.917 0 0 1 1.244-1.244c.383-.2.776-.27 1.146-.3.346-.029.761-.029 1.223-.029ZM4.99 4.728a.583.583 0 0 0-.262.262 1.493 1.493 0 0 0-.041.255c-.02.238-.02.555-.02 1.073v2.531c0 .518 0 .835.02 1.072a1.49 1.49 0 0 0 .042.255l.003.01a.583.583 0 0 0 .25.248l.008.004a1.494 1.494 0 0 0 .255.041c.238.02.555.021 1.073.021h2.531c.518 0 .835 0 1.072-.02a1.492 1.492 0 0 0 .255-.042l.01-.004a.583.583 0 0 0 .248-.248l.004-.01a1.492 1.492 0 0 0 .041-.255c.02-.237.021-.554.021-1.072V6.318c0-.518 0-.835-.02-1.073a1.495 1.495 0 0 0-.042-.255.583.583 0 0 0-.253-.258l-.009-.004a1.49 1.49 0 0 0-.255-.041c-.237-.02-.554-.02-1.072-.02H6.318c-.518 0-.835 0-1.072.02a1.493 1.493 0 0 0-.256.041Zm14.118-2.395h2.617c.462 0 .877 0 1.223.029.37.03.763.1 1.146.3.533.276.968.71 1.244 1.244.2.383.27.776.3 1.146.029.346.029.761.029 1.223v2.617c0 .462 0 .877-.029 1.222-.03.37-.1.763-.3 1.147a2.917 2.917 0 0 1-1.244 1.244c-.383.2-.776.269-1.146.3-.346.028-.761.028-1.223.028h-2.617c-.462 0-.877 0-1.222-.028-.37-.031-.763-.1-1.147-.3a2.917 2.917 0 0 1-1.244-1.244c-.2-.384-.269-.777-.3-1.147-.028-.345-.028-.76-.028-1.222V6.275c0-.462 0-.877.028-1.223.031-.37.1-.763.3-1.146a2.917 2.917 0 0 1 1.244-1.244c.384-.2.777-.27 1.147-.3.345-.029.76-.029 1.222-.029Zm-1.284 2.395-.01.004a.583.583 0 0 0-.252.258 1.499 1.499 0 0 0-.041.255c-.02.238-.021.555-.021 1.073v2.531c0 .518.001.835.02 1.072a1.497 1.497 0 0 0 .042.255l.004.01a.583.583 0 0 0 .248.248l.01.004a1.497 1.497 0 0 0 .255.041c.237.02.554.021 1.072.021h2.532c.517 0 .834 0 1.072-.02a1.497 1.497 0 0 0 .255-.042.583.583 0 0 0 .258-.253l.004-.009a1.482 1.482 0 0 0 .041-.255c.02-.237.02-.554.02-1.072V6.318c0-.518 0-.835-.02-1.073a1.485 1.485 0 0 0-.041-.255l-.004-.009a.583.583 0 0 0-.258-.253 1.495 1.495 0 0 0-.255-.041c-.238-.02-.555-.02-1.073-.02h-2.531c-.518 0-.835 0-1.072.02a1.495 1.495 0 0 0-.255.041ZM6.274 15.167h2.618c.462 0 .877 0 1.222.028.37.031.763.1 1.147.3.533.277.967.711 1.244 1.244.2.384.269.777.3 1.147.028.345.028.76.028 1.222v2.617c0 .462 0 .877-.028 1.223-.031.37-.1.763-.3 1.146a2.917 2.917 0 0 1-1.244 1.244c-.384.2-.777.27-1.147.3-.345.029-.76.029-1.222.029H6.275c-.462 0-.877 0-1.223-.029-.37-.03-.763-.1-1.146-.3a2.917 2.917 0 0 1-1.244-1.244c-.2-.383-.27-.776-.3-1.146-.029-.346-.029-.761-.029-1.223v-2.617c0-.462 0-.877.029-1.222.03-.37.1-.763.3-1.147a2.916 2.916 0 0 1 1.244-1.244c.383-.2.776-.269 1.146-.3.346-.028.761-.028 1.223-.028ZM4.99 17.562l-.009.004a.583.583 0 0 0-.249.248l-.003.01a1.495 1.495 0 0 0-.041.255c-.02.237-.021.554-.021 1.072v2.532c0 .517 0 .834.02 1.072a1.49 1.49 0 0 0 .042.255l.003.009a.583.583 0 0 0 .258.253 1.494 1.494 0 0 0 .255.041c.238.02.555.02 1.073.02h2.531c.518 0 .835 0 1.072-.02a1.492 1.492 0 0 0 .255-.041l.01-.004a.584.584 0 0 0 .248-.25l.004-.008a1.492 1.492 0 0 0 .041-.255c.02-.238.021-.555.021-1.073v-2.531c0-.518 0-.835-.02-1.072a1.497 1.497 0 0 0-.042-.255l-.004-.01a.583.583 0 0 0-.248-.248l-.003-.001-.007-.003a1.492 1.492 0 0 0-.255-.041A14.75 14.75 0 0 0 8.85 17.5H6.318c-.518 0-.835.001-1.072.02a1.495 1.495 0 0 0-.256.042Zm14.118-2.395h2.617c.462 0 .877 0 1.223.028.37.031.763.1 1.146.3.533.277.968.711 1.244 1.244.2.384.27.777.3 1.147.029.345.029.76.029 1.222v2.617c0 .462 0 .877-.029 1.223-.03.37-.1.763-.3 1.146a2.916 2.916 0 0 1-1.244 1.244c-.383.2-.776.27-1.146.3-.346.029-.761.029-1.223.029h-2.617c-.462 0-.877 0-1.222-.029-.37-.03-.763-.1-1.147-.3a2.917 2.917 0 0 1-1.244-1.244c-.2-.383-.269-.776-.3-1.146-.028-.346-.028-.761-.028-1.223v-2.617c0-.462 0-.877.028-1.222.031-.37.1-.763.3-1.147a2.916 2.916 0 0 1 1.244-1.244c.384-.2.777-.269 1.147-.3.345-.028.76-.028 1.222-.028Zm-1.284 2.395-.01.004a.583.583 0 0 0-.248.248l-.004.01a1.501 1.501 0 0 0-.041.255c-.02.237-.021.554-.021 1.072v2.532c0 .517.001.834.02 1.072a1.497 1.497 0 0 0 .042.255.584.584 0 0 0 .253.258l.009.004a1.497 1.497 0 0 0 .255.041c.237.02.554.02 1.072.02h2.532c.517 0 .834 0 1.072-.02a1.497 1.497 0 0 0 .255-.041.583.583 0 0 0 .258-.253l.004-.01a1.482 1.482 0 0 0 .041-.255c.02-.237.02-.554.02-1.072v-2.531c0-.518 0-.835-.02-1.072a1.487 1.487 0 0 0-.041-.255.107.107 0 0 0-.002-.006l-.002-.004a.583.583 0 0 0-.258-.252 1.497 1.497 0 0 0-.255-.041c-.238-.02-.555-.021-1.073-.021h-2.531c-.518 0-.835.001-1.072.02a1.497 1.497 0 0 0-.255.042Z" fill="#256CFA"/>
</svg>