<svg xmlns="http://www.w3.org/2000/svg" fill="none" viewBox="0 0 21 20"><path fill="#0F1729" fill-opacity=".72" fill-rule="evenodd" d="M4.982 1.667h1.87c.33 0 .626 0 .872.02.265.022.545.072.82.214.38.198.69.508.888.889.143.274.192.555.214.819.02.247.02.543.02.873v1.87c0 .33 0 .626-.02.873a2.114 2.114 0 0 1-.214.819c-.198.38-.508.69-.888.888a2.114 2.114 0 0 1-.82.214c-.246.02-.543.02-.873.02h-1.87c-.329 0-.626 0-.872-.02a2.114 2.114 0 0 1-.82-.214 2.083 2.083 0 0 1-.888-.888 2.114 2.114 0 0 1-.214-.82c-.02-.246-.02-.543-.02-.873V4.482c0-.33 0-.626.02-.873.022-.264.072-.545.214-.82.198-.38.508-.69.889-.888.274-.142.554-.192.819-.214.247-.02.543-.02.873-.02Zm-.917 1.71a.417.417 0 0 0-.187.187 1.065 1.065 0 0 0-.03.182c-.014.17-.015.397-.015.767V6.32c0 .37.001.596.015.766a1.065 1.065 0 0 0 .03.182.417.417 0 0 0 .187.187 1.065 1.065 0 0 0 .182.03c.17.013.396.014.765.014h1.809c.37 0 .596 0 .766-.015a1.065 1.065 0 0 0 .182-.03.417.417 0 0 0 .187-.187 1.066 1.066 0 0 0 .03-.182c.013-.169.014-.395.014-.765V4.513c0-.37 0-.597-.015-.766a1.066 1.066 0 0 0-.03-.182.417.417 0 0 0-.187-.187 1.066 1.066 0 0 0-.182-.03c-.169-.014-.395-.015-.765-.015H5.012c-.37 0-.596.001-.765.015a1.066 1.066 0 0 0-.182.03Zm10.084-1.71h1.869c.33 0 .626 0 .873.02.264.022.545.072.82.214.38.198.69.508.888.889.142.274.192.555.214.819.02.247.02.543.02.873v1.87c0 .33 0 .626-.02.873a2.112 2.112 0 0 1-.214.819c-.198.38-.508.69-.889.888a2.113 2.113 0 0 1-.819.214c-.247.02-.543.02-.873.02h-1.87c-.33 0-.626 0-.873-.02a2.113 2.113 0 0 1-.819-.214 2.083 2.083 0 0 1-.888-.888 2.114 2.114 0 0 1-.214-.82c-.02-.246-.02-.543-.02-.872v-1.87c0-.33 0-.626.02-.873.022-.264.071-.545.214-.82.197-.38.508-.69.888-.888.274-.142.555-.192.82-.214.246-.02.543-.02.873-.02Zm-.918 1.71a.417.417 0 0 0-.184.18l-.003.008a1.062 1.062 0 0 0-.03.182c-.013.17-.014.396-.014.766V6.32c0 .37 0 .596.015.766a1.062 1.062 0 0 0 .03.182.417.417 0 0 0 .187.187 1.064 1.064 0 0 0 .182.03c.169.013.395.014.765.014h1.809c.37 0 .596 0 .765-.015a1.064 1.064 0 0 0 .182-.03.417.417 0 0 0 .184-.18l.003-.006a1.076 1.076 0 0 0 .03-.182c.014-.17.015-.396.015-.766V4.513c0-.37-.001-.597-.015-.766a1.076 1.076 0 0 0-.03-.182l-.002-.007a.417.417 0 0 0-.185-.18 1.066 1.066 0 0 0-.182-.03c-.17-.014-.396-.015-.765-.015h-1.809c-.37 0-.596.001-.766.015a1.066 1.066 0 0 0-.182.03Zm-8.25 7.456h1.87c.33 0 .627 0 .873.02.265.023.545.072.82.215.38.198.69.508.888.888.143.275.192.555.214.82.02.246.02.543.02.873v1.87c0 .329 0 .626-.02.872a2.113 2.113 0 0 1-.214.82c-.198.38-.508.69-.888.888a2.115 2.115 0 0 1-.82.214c-.246.02-.543.02-.873.02h-1.87c-.329 0-.625 0-.872-.02a2.115 2.115 0 0 1-.82-.214 2.083 2.083 0 0 1-.888-.889 2.113 2.113 0 0 1-.214-.819c-.02-.246-.02-.543-.02-.873v-1.87c0-.329 0-.626.02-.872.022-.265.072-.545.214-.82.198-.38.508-.69.889-.888.274-.143.554-.192.819-.214.246-.02.543-.02.873-.02Zm-.916 1.711-.007.003a.417.417 0 0 0-.18.184 1.064 1.064 0 0 0-.03.182c-.014.17-.015.396-.015.766v1.809c0 .37.001.596.015.765a1.062 1.062 0 0 0 .03.183l.002.006a.416.416 0 0 0 .185.18 1.062 1.062 0 0 0 .182.03c.17.014.396.015.765.015h1.809c.37 0 .596 0 .766-.015a1.062 1.062 0 0 0 .182-.03.416.416 0 0 0 .184-.18l.003-.006a1.063 1.063 0 0 0 .03-.182c.013-.17.014-.396.014-.766v-1.809c0-.37 0-.596-.015-.765a1.066 1.066 0 0 0-.03-.183.417.417 0 0 0-.18-.184h-.001l-.005-.003a1.076 1.076 0 0 0-.182-.03c-.17-.013-.396-.014-.766-.014H5.012c-.37 0-.596 0-.765.015a1.076 1.076 0 0 0-.182.03Zm10.084-1.71h1.87c.329 0 .625 0 .872.02.264.022.545.072.82.214.38.198.69.508.888.888.142.275.192.555.214.82.02.246.02.543.02.873v1.87c0 .329 0 .626-.02.872a2.111 2.111 0 0 1-.214.82c-.198.38-.508.69-.889.888a2.115 2.115 0 0 1-.819.214c-.247.02-.543.02-.873.02h-1.87c-.33 0-.626 0-.873-.02a2.115 2.115 0 0 1-.819-.214 2.083 2.083 0 0 1-.888-.889 2.113 2.113 0 0 1-.214-.819c-.02-.246-.02-.543-.02-.873v-1.87c0-.329 0-.626.02-.872.022-.265.071-.545.214-.82.197-.38.508-.69.888-.888.274-.143.555-.192.82-.214.246-.02.543-.02.873-.02Zm-.918 1.71-.006.003a.416.416 0 0 0-.178.178l-.003.006a1.061 1.061 0 0 0-.03.182c-.013.17-.014.396-.014.766v1.809c0 .37 0 .596.015.765a1.059 1.059 0 0 0 .03.183.416.416 0 0 0 .187.187 1.061 1.061 0 0 0 .182.03c.169.013.395.014.765.014h1.809c.37 0 .596 0 .765-.015a1.061 1.061 0 0 0 .182-.03.416.416 0 0 0 .184-.18l.003-.006a1.073 1.073 0 0 0 .03-.182c.014-.17.015-.396.015-.766v-1.809c0-.37-.001-.596-.015-.765a1.076 1.076 0 0 0-.03-.183l-.001-.004a.416.416 0 0 0-.179-.18l-.007-.003a1.076 1.076 0 0 0-.182-.03c-.17-.013-.396-.014-.765-.014h-1.809c-.37 0-.596 0-.766.015a1.076 1.076 0 0 0-.182.03Z" clip-rule="evenodd"/></svg>