<svg fill="none" xmlns="http://www.w3.org/2000/svg" viewBox="0 0 24 24">
  <g opacity=".72" fill="#0F1729">
    <path d="M5.1426 16a.857.857 0 0 1 .8571-.8571h2a.857.857 0 1 1 0 1.7142h-2A.857.857 0 0 1 5.1426 16ZM10.9997 15.1429a.857.857 0 0 0-.8571.8571.857.857 0 0 0 .8571.8571h1a.8571.8571 0 1 0 0-1.7142h-1Z"/>
    <path fill-rule="evenodd" clip-rule="evenodd" d="M6.1037 3.1429c-.7016 0-1.2806 0-1.752.039-.4898.0407-.9396.128-1.361.347a3.4285 3.4285 0 0 0-1.4621 1.462c-.219.4214-.3062.8713-.3469 1.361-.0391.4715-.0391 1.0505-.0391 1.752v7.7921c0 .7016 0 1.2806.0391 1.7521.0407.4897.128.9395.3469 1.3609a3.4282 3.4282 0 0 0 1.462 1.4621c.4215.2189.8713.3062 1.361.3469.4715.0392 1.0505.0391 1.752.0391h11.7921c.7016 0 1.2807.0001 1.7521-.0391.4897-.0407.9396-.128 1.361-.3469a3.4283 3.4283 0 0 0 1.4621-1.4621c.2189-.4214.3062-.8712.3468-1.3609.0392-.4715.0392-1.0505.0392-1.752v-7.792c0-.7017 0-1.2808-.0392-1.7522-.0406-.4897-.1279-.9396-.3468-1.361a3.4287 3.4287 0 0 0-1.4621-1.462c-.4214-.219-.8713-.3063-1.361-.347-.4714-.039-1.0505-.039-1.7521-.039H6.1037ZM3.781 5.0502c.136-.0707.3308-.1281.7126-.1598.3921-.0326.8996-.0333 1.6462-.0333h11.72c.7466 0 1.2541.0007 1.6462.0333.3818.0317.5767.0891.7126.1598.3131.1626.5684.4179.7311.731.0706.136.128.3308.1597.7126.0326.392.0333.8996.0333 1.6462v.0147a.864.864 0 0 0-.1429-.0118h-18a.8626.8626 0 0 0-.1428.0118V8.14c0-.7466.0006-1.2541.0332-1.6462.0317-.3818.0892-.5767.1598-.7126a1.7143 1.7143 0 0 1 .731-.731Zm-.924 4.795V15.86c0 .7466.0006 1.2541.0332 1.6462.0317.3818.0892.5767.1598.7126a1.714 1.714 0 0 0 .731.731c.136.0707.3308.1281.7126.1598.3921.0326.8996.0333 1.6462.0333h11.72c.7466 0 1.2541-.0007 1.6462-.0333.3818-.0317.5767-.0891.7126-.1598a1.7144 1.7144 0 0 0 .7311-.731c.0706-.1359.128-.3308.1597-.7126.0326-.3921.0333-.8996.0333-1.6462V9.8453a.864.864 0 0 1-.1429.0119h-18a.8626.8626 0 0 1-.1428-.012Z"/>
  </g>
</svg>