<svg fill="none" xmlns="http://www.w3.org/2000/svg" viewBox="0 0 24 24">
  <path d="M4.24 0h15.52C22.08 0 24 1.9726 24 4.356v15.2873c0 2.4246-1.92 4.3561-4.24 4.3561H4.24C1.92 24.0405 0 22.0679 0 19.6844V4.356C0 1.9726 1.92 0 4.24 0Z" fill="#FF1E00"/>
  <path d="M19.2803 13.9312c-.48-.5343-1.4-.7808-2.72-.7808-.72 0-1.48.0822-2.2.2054-.48-.452-.88-.9862-1.28-1.5205-.28-.4109-.56-.8219-.8-1.2739.4-1.1507.64-2.3835.72-3.6164 0-1.1095-.44-2.3013-1.64-2.3013-.4 0-.8.2466-1 .6165-.52.904-.32 2.7533.52 4.6848-.28.863-.6 1.726-.96 2.6711-.32.8219-.68 1.6027-1.12 2.3424-1.24.4932-3.84 1.726-4.08 3.0821-.08.411.04.8219.36 1.0685.28.2466.68.411 1.08.3699 1.56 0 3.12-2.2192 4.2-4.1506.6-.2055 1.2-.411 1.84-.5753.68-.1644 1.32-.3288 1.92-.4521 1.68 1.4794 3.16 1.726 3.88 1.726 1 0 1.4-.452 1.52-.8219.16-.452.08-.9452-.24-1.2739Zm-1.08.7808c-.04.2876-.36.4931-.76.4931-.12 0-.24 0-.36-.0411-.8-.2055-1.56-.6164-2.2-1.1506.52-.0822 1.08-.1233 1.6-.1233.36 0 .72.0411 1.08.0822.36.0821.76.2465.64.7397Zm-7.16-9.082c.08-.1233.2-.2055.36-.2466.4 0 .48.452.48.863-.04.9452-.2 1.8493-.48 2.7534-.68-1.767-.6-2.9588-.36-3.3698Zm2.24 7.8902c-.44.0822-.88.2055-1.32.3288-.32.0822-.64.2055-1 .2876.16-.3698.32-.7397.48-1.0684.2-.4521.36-.9041.52-1.3562.16.2466.28.4521.44.6576.28.4109.6.7808.88 1.1506Zm-4.84 2.3835c-1 1.6438-2 2.7123-2.56 2.7123-.08 0-.2-.0411-.24-.0822-.12-.0822-.16-.2466-.12-.3699.08-.6164 1.24-1.4794 2.92-2.2602Z" fill="#fff"/>
</svg>