<svg fill="none" xmlns="http://www.w3.org/2000/svg" viewBox="0 0 20 20">
  <path fill-rule="evenodd" clip-rule="evenodd" d="M8.3335 3.3333c0-.9204.7462-1.6666 1.6667-1.6666.9204 0 1.6666.7462 1.6666 1.6666 0 .9205-.7462 1.6667-1.6666 1.6667-.9205 0-1.6667-.7462-1.6667-1.6667Zm0 6.6667c0-.9205.7462-1.6667 1.6667-1.6667.9204 0 1.6666.7462 1.6666 1.6667 0 .9205-.7462 1.6667-1.6666 1.6667-.9205 0-1.6667-.7462-1.6667-1.6667Zm1.6667 5c-.9205 0-1.6667.7462-1.6667 1.6667 0 .9204.7462 1.6666 1.6667 1.6666.9204 0 1.6666-.7462 1.6666-1.6666 0-.9205-.7462-1.6667-1.6666-1.6667Z" fill="#0F1729" opacity=".54"/>
</svg>