<svg fill="none" xmlns="http://www.w3.org/2000/svg" viewBox="0 0 20 20">
  <path fill-rule="evenodd" clip-rule="evenodd" d="M8.2554 3.3333a50.0522 50.0522 0 0 0 .1552 0c.3072-.0006.6092-.001.8783.071a2.0833 2.0833 0 0 1 1.4731 1.4732c.0721.269.0716.571.0711.8783l-.0001.0775h6.6667a.8333.8333 0 0 1 0 1.6667H10.833l.0001.0776c.0005.3072.001.6092-.0711.8783A2.0833 2.0833 0 0 1 9.2889 9.929c-.269.0721-.571.0716-.8783.0711L8.333 10l-.0776.0001c-.3072.0005-.6092.001-.8783-.071A2.0833 2.0833 0 0 1 5.904 8.4558c-.072-.269-.0716-.571-.071-.8783V7.5H4.1663a.8333.8333 0 0 1 0-1.6667H5.833v-.0775c-.0006-.3073-.001-.6093.071-.8783a2.0833 2.0833 0 0 1 1.4731-1.4732c.269-.072.571-.0716.8783-.071Zm-.3402 1.6712c-.0889.004-.1098.0105-.1067.0097a.4167.4167 0 0 0-.2946.2946c-.0007.003-.0062.0286-.0098.1067-.0042.0934-.0044.2165-.0044.4178V7.5c0 .2013.0002.3245.0044.4178.004.0889.0106.1098.0098.1067a.4167.4167 0 0 0 .2946.2946c-.0031-.0008.0178.0057.1067.0098.0933.0042.2165.0044.4178.0044s.3245-.0002.4178-.0044c.089-.004.1098-.0106.1067-.0098a.4166.4166 0 0 0 .2946-.2946c-.0008.0031.0057-.0178.0098-.1067.0042-.0933.0044-.2165.0044-.4178V5.8333c0-.2013-.0002-.3244-.0044-.4178-.004-.0889-.0106-.1098-.0098-.1067m-1.237-.3043C8.0086 5.0002 8.1318 5 8.3332 5l-.418.0045ZM8.3332 5c.2012 0 .3244.0002.4177.0045L8.333 5Zm.4177.0045c.0782.0035.1038.009.1067.0097l-.1067-.0097Zm.107.0098-.0003-.0001h.0003Zm4.3976 4.9856a40.1452 40.1452 0 0 0 .1552 0c.3072-.0005.6092-.001.8783.0711a2.0832 2.0832 0 0 1 1.4731 1.4731c.0721.2691.0716.5711.0711.8783l-.0001.0776h1.6667a.8333.8333 0 0 1 0 1.6667H15.833l.0001.0775c.0005.3073.001.6093-.0711.8783a2.0834 2.0834 0 0 1-1.4731 1.4732c-.2691.0721-.5711.0716-.8783.071h-.1552c-.3072.0006-.6092.0011-.8783-.071a2.0834 2.0834 0 0 1-1.4731-1.4732c-.0721-.269-.0716-.571-.0711-.8783l.0001-.0775H4.1663a.8333.8333 0 0 1 0-1.6667h6.6667l-.0001-.0776c-.0005-.3072-.001-.6092.0711-.8783a2.0832 2.0832 0 0 1 1.4731-1.4731c.2691-.0721.5711-.0716.8783-.071Zm-.3402 1.6712c-.0889.0041-.1098.0106-.1067.0098a.4165.4165 0 0 0-.2946.2946c.0008-.0031-.0057.0178-.0098.1067-.0042.0933-.0044.2165-.0044.4178v1.6667c0 .2013.0002.3244.0044.4178.0041.0889.0106.1098.0098.1067a.4165.4165 0 0 0 .2946.2946c-.0031-.0008.0178.0057.1067.0097.0933.0043.2165.0045.4178.0045s.3245-.0002.4178-.0045c.0889-.004.1098-.0105.1067-.0097a.4165.4165 0 0 0 .2946-.2946c-.0008.0031.0057-.0178.0098-.1067.0042-.0934.0044-.2165.0044-.4178V12.5c0-.2013-.0002-.3245-.0044-.4178-.0041-.0889-.0106-.1098-.0098-.1067a.4165.4165 0 0 0-.2946-.2946c.0031.0008-.0178-.0057-.1067-.0098-.0933-.0042-.2165-.0044-.4178-.0044s-.3245.0002-.4178.0044Z" fill="#fff"/>
</svg>