<svg fill="none" xmlns="http://www.w3.org/2000/svg" viewBox="0 0 30 32">
  <path d="M19.9031.7237c-2.6347.0001-5.1614 1.0659-7.0244 2.9628-1.8631 1.8969-2.9098 4.4695-2.91 7.1522v.238H0v20.314h20.2125v-10.444c2.6107-.0764 5.0868-1.1966 6.8923-3.1182 1.8055-1.9216 2.795-4.4898 2.7543-7.1488-.0407-2.659-1.1083-5.1946-2.9716-7.058-1.8634-1.8633-4.3726-2.9045-6.9844-2.898ZM3.4375 27.8907v-13.314h6.5313v6.377h6.8062v6.937H3.4375Zm16.775-10.444c-.1031.007-.2062.007-.3094.007h-6.4969v-6.615c.0001-1.295.3735-2.5613 1.0738-3.6422.7003-1.0809 1.6968-1.9287 2.8659-2.4384a6.3902 6.3902 0 0 1 3.711-.4288c1.2515.23 2.4093.8289 3.3297 1.7225.9204.8936 1.563 2.0425 1.8481 3.3045a6.7297 6.7297 0 0 1-.2443 3.7945c-.4444 1.2133-1.2288 2.267-2.2559 3.0307-1.0271.7636-2.2517 1.2035-3.522 1.2652Z" fill="#256CFA"/>
</svg>