<svg fill="none" xmlns="http://www.w3.org/2000/svg" viewBox="0 0 49 48">
  <path fill-rule="evenodd" clip-rule="evenodd" d="M17.3173 7.8822c-1.3434-.9903-2.248-1.2138-2.7334-1.1191-2.0025.3908-3.1895 1.1703-4.7978 2.7786-2.1952 2.1952-3.2603 3.8343-2.7964 6.3195.534 2.8614 3.1435 7.2285 10.3355 14.4205 7.1916 7.1916 11.585 9.8284 14.4623 10.3738 1.3335.2527 2.349.0551 3.2602-.3937.9741-.4798 1.9121-1.2874 2.988-2.4102.9541-.9958 1.5331-1.6907 1.9382-2.3745.386-.6514.6597-1.3717.871-2.4534.0948-.4854-.1287-1.3901-1.1192-2.7337-.9237-1.253-2.2269-2.4974-3.4317-3.5133-.795-.6703-2.025-.713-3.0186.0308l-3.0367 2.2733c-2.7391 2.0504-6.5665 1.7567-8.9831-.6599l-2.0696-2.0695c-2.4166-2.4166-2.7103-6.2441-.6598-8.9832l2.2732-3.0365c.7438-.9936.7011-2.2236.0306-3.0187-1.0157-1.2045-2.26-2.5073-3.5127-3.4308Zm2.3734-3.2198c1.6189 1.1934 3.0969 2.7672 4.1972 4.072 2.0057 2.3785 1.8421 5.6855.1136 7.9944l-2.2732 3.0366c-.8469 1.1313-.7374 2.734.2862 3.7576l2.0695 2.0695c1.0236 1.0236 2.6263 1.133 3.7576.2861l3.0367-2.2733c2.3089-1.7284 5.6157-1.892 7.9941.1134 1.3051 1.1004 2.8793 2.5786 4.073 4.1977 1.1268 1.5286 2.2607 3.6454 1.8253 5.8741-.2795 1.4312-.69 2.6024-1.3554 3.7255-.6463 1.0908-1.4859 2.0535-2.4915 3.103-1.1653 1.2162-2.4938 2.4358-4.1088 3.2312-1.6779.8264-3.5741 1.152-5.7723.7353-4.1861-.7934-9.3358-4.2652-16.5459-11.4754C7.2871 25.9005 3.8374 20.7729 3.0576 16.5952c-.85-4.5538 1.5161-7.498 3.9001-9.882 1.9692-1.9691 3.8364-3.286 6.86-3.876 2.2283-.4349 4.3447.6986 5.873 1.8252Z" fill="#616161"/>
</svg>