<svg fill="none" xmlns="http://www.w3.org/2000/svg" viewBox="0 0 24 24">
  <path fill-rule="evenodd" clip-rule="evenodd" d="M7.7813 4C4.537 4 2 6.8198 2 10.1559c0 1.7352.2777 3.1641 1.3128 4.6675.9877 1.4346 2.6301 2.8822 5.1785 4.7921L12 22l3.5084-2.3842c2.5486-1.91 4.1911-3.3578 5.1788-4.7924C21.7223 13.32 22 11.8911 22 10.1559 22 6.8199 19.463 4 16.2188 4c-1.6279 0-3.037.6632-4.2188 1.8632C10.8182 4.6632 9.409 4 7.7812 4Zm0 2C5.7755 6 4 7.7855 4 10.1559c0 .549.031 1.0316.1085 1.4766.1298.7455.3896 1.3857.8516 2.0568.7852 1.1404 2.1885 2.4207 4.7315 4.3264L12 19.7494l2.3084-1.7337c2.543-1.9057 3.9463-3.186 4.7315-4.3264.7378-1.0717.9601-2.0648.9601-3.5334C20 7.7855 18.2245 6 16.2188 6c-1.2357 0-2.3687.5863-3.4155 1.9983a1 1 0 0 1-1.6066 0C10.1499 6.5863 9.0169 6 7.7813 6Z" fill="#0F1729"/>
</svg>