<svg fill="none" xmlns="http://www.w3.org/2000/svg" viewBox="0 0 20 20">
  <path fill-rule="evenodd" clip-rule="evenodd" d="M6.4842 3.3333c-2.7035 0-4.8177 2.3499-4.8177 5.13 0 1.446.2314 2.6367 1.094 3.8896.823 1.1954 2.1918 2.4018 4.3155 3.9934l2.9238 1.987 2.9237-1.9868c2.1238-1.5917 3.4926-2.7981 4.3156-3.9936.8627-1.2529 1.0941-2.4436 1.0941-3.8896 0-2.7801-2.1142-5.13-4.8177-5.13-1.3565 0-2.5308.5527-3.5157 1.5527-.9848-1-2.159-1.5527-3.5156-1.5527Zm0 1.6667c-1.6714 0-3.151 1.488-3.151 3.4633 0 .4575.0259.8596.0904 1.2305.1081.6212.3247 1.1547.7097 1.7139.6543.9504 1.8237 2.0173 3.9428 3.6054l1.9237 1.4447 1.9237-1.4447c2.1192-1.5881 3.2886-2.655 3.9429-3.6054.6148-.893.8001-1.7206.8001-2.9444C16.6665 6.4879 15.1869 5 13.5155 5c-1.0297 0-1.9739.4886-2.8462 1.6653a.8334.8334 0 0 1-1.3389 0C8.4581 5.4886 7.5139 5 6.4842 5Z" fill="#0F1729" opacity=".54"/>
</svg>