<svg xmlns="http://www.w3.org/2000/svg" fill="none" viewBox="0 0 20 20"><path fill="#fff" fill-rule="evenodd" d="M9.301 1.496a2.5 2.5 0 0 1 1.398 0c.317.092.58.255.825.44.23.175.49.406.79.672l4.389 3.902.07.062c.434.386.763.677 1.003 1.039.203.305.354.642.448.996.11.42.11.859.11 1.44v4.296c0 .682 0 1.245-.039 1.704-.04.476-.124.913-.337 1.323a3.334 3.334 0 0 1-1.421 1.421c-.41.213-.847.298-1.324.337-.458.039-1.02.039-1.703.039H13.151c-.1 0-.221 0-.327-.01-.123-.01-.3-.036-.483-.131a1.25 1.25 0 0 1-.534-.533 1.256 1.256 0 0 1-.132-.483 4.088 4.088 0 0 1-.008-.328V15a1.667 1.667 0 1 0-3.334 0v2.682c0 .1 0 .222-.008.328-.01.123-.037.299-.132.483a1.25 1.25 0 0 1-.533.533c-.184.095-.36.122-.484.132-.106.009-.226.009-.327.009H6.49c-.682 0-1.245 0-1.703-.039-.476-.039-.914-.124-1.324-.337a3.334 3.334 0 0 1-1.421-1.421c-.213-.41-.298-.847-.337-1.323-.038-.459-.038-1.022-.038-1.704v-4.296c0-.581 0-1.02.11-1.44.093-.354.244-.691.447-.996.24-.362.569-.653 1.003-1.04l.07-.061 4.39-3.902c.299-.266.559-.497.79-.672a2.53 2.53 0 0 1 .824-.44Z" clip-rule="evenodd"/></svg>