<svg fill="none" xmlns="http://www.w3.org/2000/svg" viewBox="0 0 24 24">
  <path fill-rule="evenodd" clip-rule="evenodd" d="M8 6a4 4 0 0 1 4-4h5.5A4.5 4.5 0 0 1 22 6.5v11a4.5 4.5 0 0 1-4.5 4.5H12a4 4 0 0 1-4-4v-1a1 1 0 1 1 2 0v1a2 2 0 0 0 2 2h5.5a2.5 2.5 0 0 0 2.5-2.5v-11A2.5 2.5 0 0 0 17.5 4H12a2 2 0 0 0-2 2v1a1 1 0 0 1-2 0V6Zm4.293 2.293a1 1 0 0 1 1.414 0l3 3a1 1 0 0 1 0 1.414l-3 3a1 1 0 0 1-1.414-1.414L13.586 13H5a1 1 0 1 1 0-2h8.586l-1.293-1.293a1 1 0 0 1 0-1.414Z" fill="#0F1729" opacity=".54"/>
</svg>