<svg fill="none" xmlns="http://www.w3.org/2000/svg" viewBox="0 0 49 48">
  <path fill-rule="evenodd" clip-rule="evenodd" d="M12.7075 6.2857c-1.4032 0-2.5613 0-3.5041.0782-.9795.0814-1.8792.256-2.722.6938A6.8572 6.8572 0 0 0 3.5572 9.982c-.4378.8428-.6124 1.7425-.6937 2.722-.0783.9428-.0783 2.1009-.0783 3.5041v13.9099c-.0002.6813-.0004 1.1861.0587 1.6343.405 3.077 2.8264 5.4983 5.9034 5.9034.094.0124.1905.0221.2905.0299.7192 2.3332 2.8924 4.0288 5.4617 4.0288 2.5586 0 4.7245-1.6817 5.4527-4h11.0947c.7281 2.3183 2.894 4 5.4527 4 2.6399 0 4.8617-1.7902 5.5176-4.2228 2.3666-.7215 3.9727-3.0984 3.5799-5.6905l-.525-3.465a27.4277 27.4277 0 0 0-4.4568-11.3426L39.447 15.28a6.857 6.857 0 0 0-5.6655-2.9943h-3.5677c-.04 0-.0798.0007-.1195.002-.0956-.8199-.2775-1.5838-.6526-2.3058a6.8567 6.8567 0 0 0-2.9241-2.9242c-.8428-.4378-1.7425-.6124-2.722-.6937-.9428-.0783-2.1009-.0783-3.5041-.0783h-7.584Zm17.5063 9.7429v18.2571h.8331c.7281-2.3184 2.894-4 5.4527-4 2.3579 0 4.3823 1.4282 5.2553 3.4667.3494-.3679.5356-.8884.4523-1.4378l-.525-3.465a23.9994 23.9994 0 0 0-3.8997-9.9247l-1.1682-1.7135a3.4286 3.4286 0 0 0-2.8328-1.4971h-3.5677v.3143Zm-3.4286.2514c0-1.4932-.0014-2.5083-.0665-3.2924-.0634-.7636-.1783-1.1534-.3195-1.4252a3.4283 3.4283 0 0 0-1.4621-1.4621c-.2718-.1412-.6616-.2561-1.4252-.3195-.7842-.0652-1.7992-.0665-3.2924-.0665h-7.44c-1.4932 0-2.5083.0013-3.2924.0665-.7636.0634-1.1534.1783-1.4252.3195a3.4282 3.4282 0 0 0-1.4621 1.4621c-.1412.2718-.2561.6616-.3195 1.4252-.0652.7841-.0665 1.7992-.0665 3.2924V30c0 .8506.0037 1.1099.0293 1.3046.1967 1.4942 1.3442 2.6791 2.8194 2.9317.7433-2.2928 2.8965-3.9506 5.437-3.9506 2.5586 0 4.7245 1.6816 5.4527 4h6.833V16.28ZM16.4995 34.8925c-.3899-.7026-1.1394-1.1782-2-1.1782-1.2624 0-2.2857 1.0233-2.2857 2.2857 0 1.2623 1.0233 2.2857 2.2857 2.2857.8606 0 1.6101-.4756 2-1.1783v-2.2149Zm20.0001 3.3932c.9412 0 1.7495-.5689 2.0999-1.3816v-1.8083c-.3504-.8126-1.1587-1.3815-2.0999-1.3815-1.2624 0-2.2858 1.0233-2.2858 2.2857 0 1.2623 1.0234 2.2857 2.2858 2.2857Z" fill="#F9A122"/>
</svg>