<svg fill="none" xmlns="http://www.w3.org/2000/svg" viewBox="0 0 24 24">
  <path fill-rule="evenodd" clip-rule="evenodd" d="M6.7139 8.1428c.5522 0 1 .4478 1 1v6.5858l2.2929-2.2929c.3905-.3905 1.0236-.3905 1.4142 0 .3905.3906.3905 1.0237 0 1.4143l-4 4c-.3906.3905-1.0237.3905-1.4142 0l-4-4c-.3906-.3906-.3906-1.0237 0-1.4143.3905-.3905 1.0236-.3905 1.4142 0l2.2929 2.2929V9.1428c0-.5522.4477-1 1-1Zm9.2929-2.707c.3905-.3906 1.0236-.3906 1.4142 0l4 4c.3905.3905.3905 1.0236 0 1.4142-.3906.3905-1.0237.3905-1.4142 0l-2.2929-2.293v6.5859c0 .5522-.4477 1-1 1s-1-.4478-1-1V8.5571L13.421 10.85c-.3906.3905-1.0237.3905-1.4142 0-.3906-.3906-.3906-1.0237 0-1.4142l4-4Z" fill="#0F1729"/>
</svg>