<svg fill="none" xmlns="http://www.w3.org/2000/svg" viewBox="0 0 24 24">
  <path fill-rule="evenodd" clip-rule="evenodd" d="M6.9408 1.1428h4.4875c5.2073 0 9.4286 4.2214 9.4286 9.4286v7.3497c0 .69 0 1.2594-.0379 1.7233-.0394.4818-.1238.9247-.3358 1.3407a3.4286 3.4286 0 0 1-1.4983 1.4983c-.416.212-.8589.2965-1.3407.3359-.4639.0379-1.0334.0378-1.7233.0378H8.0786c-.69 0-1.2594.0001-1.7233-.0378-.4818-.0394-.9247-.1239-1.3407-.3359a3.4286 3.4286 0 0 1-1.4983-1.4983c-.212-.416-.2965-.8589-.3358-1.3407-.038-.4639-.038-1.0333-.0379-1.7233V4.941c-.0001-.3406-.0002-.593.0293-.8171.2026-1.5385 1.4132-2.7492 2.9517-2.9517.2242-.0295.4765-.0295.8172-.0294ZM19.1426 13c0-.6907-.0018-.9531-.0293-1.1618-.2026-1.5385-1.4132-2.7492-2.9518-2.9517-.2087-.0275-.4711-.0294-1.1618-.0294h-.75c-1.716 0-3.1071-1.391-3.1071-3.1071 0-1.5977-1.2952-2.8929-2.8929-2.8929h-1.25c-.4253 0-.555.0019-.6523.0147a1.7143 1.7143 0 0 0-1.4759 1.4759c-.0128.0973-.0146.227-.0146.6523v12.8857c0 .7342.0006 1.2333.0322 1.6191.0307.3758.0863.568.1546.702.1644.3226.4266.5848.7492.7492.134.0683.3262.124.702.1547.3858.0315.885.0321 1.6191.0321h7.7715c.7342 0 1.2333-.0006 1.6191-.0321.3758-.0307.5679-.0864.702-.1547a1.715 1.715 0 0 0 .7492-.7492c.0683-.134.1239-.3262.1546-.702.0315-.3858.0322-.8849.0322-1.6191V13ZM11.8445 2.8682A4.5879 4.5879 0 0 1 12.8569 5.75c0 .7692.6236 1.3928 1.3928 1.3928h.8212c.5953 0 .9793 0 1.3144.044a5.1318 5.1318 0 0 1 2.3644.9473c-.9785-2.9405-3.6788-5.0944-6.9052-5.266Z" fill="#0F1729" opacity=".72"/>
</svg>