<svg fill="none" xmlns="http://www.w3.org/2000/svg" viewBox="0 0 24 24">
  <path d="M6.5 4C5.1193 4 4 5.1193 4 6.5V7c0 .5523-.4477 1-1 1s-1-.4477-1-1v-.5C2 4.0147 4.0147 2 6.5 2H7c.5523 0 1 .4477 1 1s-.4477 1-1 1h-.5Z" fill="#0F1729"/>
  <path fill-rule="evenodd" clip-rule="evenodd" d="M10.9598 6c-.6658 0-1.2254 0-1.6832.0374-.4787.039-.9337.124-1.3656.344A3.5 3.5 0 0 0 6.3815 7.911c-.22.4319-.305.8869-.3441 1.3656-.0178.218-.0271.4589-.032.7234H4c-.5523 0-1 .4477-1 1s.4477 1 1 1h16c.5523 0 1-.4477 1-1s-.4477-1-1-1h-2.0054c-.0048-.2645-.0142-.5055-.032-.7234-.0391-.4787-.124-.9337-.3441-1.3656a3.5 3.5 0 0 0-1.5295-1.5295c-.4319-.22-.8869-.305-1.3656-.3441C14.2656 6 13.706 6 13.0402 6h-2.0804Zm5.0345 4c-.0043-.2157-.0118-.3989-.025-.5606-.029-.355-.0803-.5175-.1328-.6204a1.5001 1.5001 0 0 0-.6555-.6555c-.1029-.0525-.2654-.1038-.6204-.1328C14.1938 8.0007 13.7166 8 13 8h-2c-.7166 0-1.1938.0008-1.5606.0307-.355.029-.5175.0804-.6204.1328a1.5 1.5 0 0 0-.6555.6555c-.0525.103-.1038.2654-.1328.6204-.0132.1617-.0207.3449-.025.5606h7.9886Z" fill="#0F1729"/>
  <path d="M14.0757 18h-3.1159c-.6657 0-1.2254 0-1.6832-.0374-.4787-.0391-.9337-.124-1.3656-.3441a3.5 3.5 0 0 1-1.5295-1.5295c-.0367-.072-.0562-.1055-.0815-.1489-.0157-.0269-.0336-.0576-.0592-.1036-.0683-.123-.1423-.278-.1865-.4945-.0361-.1769-.0454-.3636-.0497-.547C6 14.6058 6 14.3522 6 14.0159V14c0-.5523.4477-1 1-1s1 .4477 1 1c0 .3558 0 .5848.004.7469a3.485 3.485 0 0 0 .0065.1552c.0326.0564.0958.1667.153.2789.1438.2822.3733.5117.6555.6555.103.0525.2654.1038.6204.1328.3668.0299.844.0307 1.5606.0307h3c.5027 0 .6376-.0031.7347-.0185a1.4998 1.4998 0 0 0 1.2468-1.2468c.0154-.0971.0185-.232.0185-.7347 0-.5523.4477-1 1-1s1 .4477 1 1v.0757c.0002.39.0003.6977-.0431.9718a3.5 3.5 0 0 1-2.9094 2.9094c-.2741.0434-.5818.0433-.9718.0431ZM22 17c0-.5523-.4477-1-1-1s-1 .4477-1 1v.5c0 1.3807-1.1193 2.5-2.5 2.5H17c-.5523 0-1 .4477-1 1s.4477 1 1 1h.5c2.4853 0 4.5-2.0147 4.5-4.5V17ZM16 3c0-.5523.4477-1 1-1h.5C19.9853 2 22 4.0147 22 6.5V7c0 .5523-.4477 1-1 1s-1-.4477-1-1v-.5C20 5.1193 18.8807 4 17.5 4H17c-.5523 0-1-.4477-1-1ZM4 17c0-.5523-.4477-1-1-1s-1 .4477-1 1v.5C2 19.9853 4.0147 22 6.5 22H7c.5523 0 1-.4477 1-1s-.4477-1-1-1h-.5C5.1193 20 4 18.8807 4 17.5V17Z" fill="#0F1729"/>
</svg>