<svg fill="none" xmlns="http://www.w3.org/2000/svg" viewBox="0 0 24 24">
  <path fill-rule="evenodd" clip-rule="evenodd" d="M1 18.5088c0-5.3409 3.9017-9.7379 9-10.6629V5.5113c0-1.8724 2.1534-2.9256 3.6313-1.776l8.3429 6.4887c1.1581.9008 1.1582 2.6513 0 3.5521l-8.3428 6.4888C12.1534 21.4143 10 20.3611 10 18.4888v-1.97c-2.259.4337-4.0375 1.5969-5.0722 3.1649-.5956.9026-1.6221 1.0897-2.3682.8798-.7549-.2124-1.5595-.9329-1.5596-2.0547Zm11.4034-13.195c-.1642-.1277-.4035-.0107-.4035.1974v3.9055c0 .138-.1126.2496-.2506.2533-3.6584.0983-6.7716 2.3414-8.0837 5.4955a8.6603 8.6603 0 0 0-.4658 1.4816A8.7206 8.7206 0 0 0 3 18.5088c0 .1348.1842.186.2585.0734A8.5486 8.5486 0 0 1 4.43 17.168a9.0051 9.0051 0 0 1 .9128-.7768c1.716-1.2754 3.9436-2.0089 6.4068-2.0555a.2467.2467 0 0 1 .2504.2476v3.9055c0 .208.2393.3251.4035.1973l8.3428-6.4888a.25.25 0 0 0 0-.3947l-8.3429-6.4888Z" fill="#0F1729"/>
</svg>