<svg fill="none" xmlns="http://www.w3.org/2000/svg" viewBox="0 0 32 32">
  <path fill-rule="evenodd" clip-rule="evenodd" d="M2.2852 4c0-.6312.5116-1.1429 1.1428-1.1429 1.8692 0 3.494 1.2834 3.927 3.1018l.2138.8982h17.2268c.7497 0 1.3872 0 1.9031.046.537.048 1.0738.1542 1.5644.4521a3.4286 3.4286 0 0 1 1.467 1.8289c.1845.5435.1716 1.0906.102 1.6252-.067.5136-.2053 1.1359-.3679 1.8677l-.731 3.2892c-.1654.7446-.3031 1.3642-.455 1.8673-.1589.5264-.3543 1.0011-.6714 1.4351a4.5709 4.5709 0 0 1-1.8587 1.491c-.4925.2155-.9983.3032-1.5466.3442-.5241.0391-1.1588.0391-1.9216.0391H13.719c-.7628 0-1.3975 0-1.9216-.0391-.5483-.041-1.0541-.1287-1.5466-.3442a4.5709 4.5709 0 0 1-1.8587-1.491c-.3171-.434-.5125-.9087-.6714-1.4351-.152-.5031-.2896-1.1227-.455-1.8673L5.5522 8.2563l-.421-1.768A1.751 1.751 0 0 0 3.428 5.1429c-.6312 0-1.1428-.5117-1.1428-1.1429Zm5.8056 5.1429 1.397 6.2866c.1769.7958.2967 1.3317.421 1.7434.1201.3977.2228.6021.3288.7471.2384.3263.5591.5835.9294.7455.1645.072.3864.128.8006.1589.4289.032.978.0327 1.7932.0327h8.4773c.8152 0 1.3643-.0007 1.7932-.0327.4142-.0309.6361-.0869.8006-.1589.3703-.162.691-.4192.9294-.7455.106-.145.2087-.3494.3288-.7471.1243-.4117.2441-.9476.4209-1.7434l.711-3.1991c.1765-.7944.2914-1.3163.3435-1.7164.0509-.3906.0212-.5333.0001-.5955a1.1427 1.1427 0 0 0-.489-.6096c-.0561-.0341-.189-.094-.5813-.129-.4019-.036-.9363-.037-1.7501-.037H8.0908Z" fill="#256CF9"/>
  <path d="M14.6661 25.3334c0 1.4727-1.1939 2.6666-2.6667 2.6666-1.4727 0-2.6666-1.1939-2.6666-2.6666 0-1.4728 1.1939-2.6667 2.6666-2.6667 1.4728 0 2.6667 1.1939 2.6667 2.6667ZM23.9994 28c1.4728 0 2.6667-1.1939 2.6667-2.6666 0-1.4728-1.1939-2.6667-2.6667-2.6667-1.4727 0-2.6666 1.1939-2.6666 2.6667 0 1.4727 1.1939 2.6666 2.6666 2.6666Z" fill="#256CF9"/>
</svg>