<svg xmlns="http://www.w3.org/2000/svg" fill="none" viewBox="0 0 20 20">
  <path fill="#fff" fill-rule="evenodd" d="M1.429 2.5c0-.394.32-.714.714-.714 1.168 0 2.184.802 2.454 1.938l.134.562h10.767c.468 0 .867 0 1.19.028.335.03.67.097.977.283.43.261.755.666.917 1.143.115.34.107.682.063 1.016-.041.32-.128.71-.23 1.167L17.96 9.98c-.104.465-.19.853-.285 1.167-.099.329-.221.626-.42.897-.297.408-.698.73-1.161.932-.308.134-.624.19-.967.215-.327.024-.724.024-1.2.024H8.574c-.477 0-.874 0-1.201-.024-.343-.026-.659-.08-.967-.215a2.857 2.857 0 0 1-1.161-.932c-.199-.271-.32-.568-.42-.897-.095-.315-.181-.702-.284-1.167L3.47 5.16l-.263-1.105a1.094 1.094 0 0 0-1.065-.84.714.714 0 0 1-.714-.715Zm3.628 3.214.873 3.93c.11.497.186.832.264 1.09.075.248.139.375.205.466.149.204.35.365.58.466.104.045.242.08.501.1.268.02.611.02 1.121.02h5.298c.51 0 .853 0 1.121-.02.259-.02.398-.055.5-.1.232-.101.432-.262.581-.466.067-.09.13-.218.206-.467.078-.257.152-.592.263-1.09l.444-1.999c.11-.497.182-.823.215-1.073.032-.244.013-.333 0-.372a.714.714 0 0 0-.306-.38c-.035-.022-.118-.06-.363-.082a13.873 13.873 0 0 0-1.094-.023H5.057Z" clip-rule="evenodd"/>
  <path fill="#fff" d="M9.167 15.833a1.667 1.667 0 1 1-3.334 0 1.667 1.667 0 0 1 3.334 0ZM15 17.5a1.667 1.667 0 1 0 0-3.333 1.667 1.667 0 0 0 0 3.333Z"/>
</svg>