<svg fill="none" xmlns="http://www.w3.org/2000/svg" viewBox="0 0 24 24">
  <g opacity=".38" fill="#0F1729">
    <path fill-rule="evenodd" clip-rule="evenodd" d="M1.714 3c0-.473.384-.857.857-.857 1.402 0 2.62.962 2.946 2.326l.16.674h12.92c.562 0 1.04 0 1.427.034.403.036.806.116 1.174.34.516.313.906.799 1.1 1.371.138.408.129.818.077 1.219-.05.385-.154.852-.276 1.4l-.549 2.468a20.83 20.83 0 0 1-.34 1.4c-.12.395-.267.75-.505 1.076a3.43 3.43 0 0 1-1.393 1.119c-.37.161-.75.227-1.16.258-.393.03-.87.03-1.442.03h-6.42c-.572 0-1.048 0-1.442-.03-.41-.03-.79-.097-1.16-.258a3.428 3.428 0 0 1-1.393-1.119c-.238-.325-.385-.681-.504-1.076a20.81 20.81 0 0 1-.341-1.4L4.165 6.192l-.316-1.326A1.313 1.313 0 0 0 2.57 3.857.857.857 0 0 1 1.714 3ZM6.07 6.857l1.047 4.715c.133.597.223.999.316 1.308.09.298.167.451.247.56.178.245.419.438.697.56.123.053.29.095.6.118.322.024.734.025 1.345.025h6.358c.611 0 1.023 0 1.345-.025.31-.023.477-.065.6-.119.278-.121.519-.314.697-.559.08-.109.157-.262.247-.56.093-.31.183-.711.316-1.308l.533-2.4c.132-.595.218-.986.257-1.287.039-.292.017-.4 0-.446a.857.857 0 0 0-.366-.457c-.042-.026-.142-.07-.436-.097-.302-.027-.702-.028-1.313-.028H6.07Z"/>
    <path d="M11 19a2 2 0 1 1-4 0 2 2 0 0 1 4 0ZM18 21a2 2 0 1 0 0-4 2 2 0 0 0 0 4Z"/>
  </g>
</svg>