<svg fill="none" xmlns="http://www.w3.org/2000/svg" viewBox="0 0 33 32">
  <path fill-rule="evenodd" clip-rule="evenodd" d="M8.8043 4.1905c-.9354 0-1.7075 0-2.336.0521-.653.0543-1.2528.1707-1.8147.4625a4.5715 4.5715 0 0 0-1.9494 1.9495c-.292.5618-.4083 1.1617-.4626 1.8146-.0522.6286-.0521 1.4006-.0521 2.3361v9.2733c-.0002.4542-.0002.7907.039 1.0895.2702 2.0514 1.8844 3.6656 3.9357 3.9356a3.513 3.513 0 0 0 .1937.0199c.4795 1.5555 1.9283 2.6859 3.6411 2.6859 1.7058 0 3.1497-1.1211 3.6351-2.6667h7.3965c.4854 1.5456 1.9294 2.6667 3.6351 2.6667 1.76 0 3.2412-1.1934 3.6785-2.8152 1.5777-.481 2.6484-2.0656 2.3866-3.7936l-.35-2.31a18.2863 18.2863 0 0 0-2.9712-7.5617l-.7789-1.1424a4.5714 4.5714 0 0 0-3.777-1.9961h-2.3785a2.309 2.309 0 0 0-.0796.0013c-.0638-.5466-.185-1.0559-.4351-1.5372a4.5715 4.5715 0 0 0-1.9494-1.9495c-.5619-.2918-1.1617-.4082-1.8147-.4625-.6286-.0522-1.4006-.0522-2.336-.0521h-5.056Zm11.6709 6.4952v12.1714h.5554c.4854-1.5455 1.9294-2.6666 3.6351-2.6666 1.572 0 2.9216.9521 3.5036 2.3111a1.1386 1.1386 0 0 0 .3015-.9585l-.35-2.31a15.9984 15.9984 0 0 0-2.5998-6.6165l-.7788-1.1423a2.2857 2.2857 0 0 0-1.8885-.9981h-2.3785v.2095Zm-2.2857.1676c0-.9954-.0009-1.6721-.0443-2.1949-.0423-.509-.1189-.769-.2131-.9502a2.2852 2.2852 0 0 0-.9747-.9747c-.1812-.0941-.4411-.1707-.9502-.213-.5227-.0434-1.1994-.0443-2.1949-.0443h-4.96c-.9954 0-1.6721.0009-2.1949.0443-.509.0423-.769.1189-.9501.213a2.2856 2.2856 0 0 0-.9748.9747c-.0941.1813-.1707.4411-.213.9502-.0434.5228-.0443 1.1995-.0443 2.1949V20c0 .5671.0025.74.0195.8698a2.2857 2.2857 0 0 0 1.8797 1.9544c.4955-1.5285 1.931-2.6337 3.6246-2.6337 1.7058 0 3.1497 1.1211 3.6351 2.6666h4.5554V10.8533Zm-6.8572 12.4084c-.2599-.4685-.7596-.7855-1.3333-.7855-.8416 0-1.5238.6822-1.5238 1.5238s.6822 1.5238 1.5238 1.5238c.5737 0 1.0734-.3171 1.3333-.7855v-1.4766Zm13.3334 2.2621c.6275 0 1.1664-.3793 1.4-.9211v-1.2055c-.2336-.5418-.7725-.921-1.4-.921-.8416 0-1.5238.6822-1.5238 1.5238s.6822 1.5238 1.5238 1.5238Z" fill="#256CF9"/>
</svg>