<svg fill="none" xmlns="http://www.w3.org/2000/svg" viewBox="0 0 24 24">
  <path fill-rule="evenodd" clip-rule="evenodd" d="M6.1037 3.1429c-.7016 0-1.2806 0-1.752.039-.4897.0407-.9396.128-1.361.347a3.4285 3.4285 0 0 0-1.462 1.462c-.219.4214-.3063.8713-.347 1.361-.0391.4715-.0391 1.0505-.0391 1.752v6.955c-.0001.3407-.0002.5931.0293.8172.2026 1.5385 1.4132 2.7492 2.9517 2.9517a2.636 2.636 0 0 0 .1453.0149c.3596 1.1666 1.4462 2.0144 2.7308 2.0144 1.2794 0 2.3623-.8408 2.7264-2h5.5473c.3641 1.1592 1.4471 2 2.7264 2 1.3199 0 2.4308-.895 2.7588-2.1113 1.1833-.3608 1.9863-1.5492 1.79-2.8453l-.2625-1.7325a13.7164 13.7164 0 0 0-2.2284-5.6713l-.5842-.8567a3.4285 3.4285 0 0 0-2.8328-1.4971h-1.7838c-.02 0-.0399.0003-.0597.001-.0478-.41-.1388-.792-.3263-1.153a3.4287 3.4287 0 0 0-1.4621-1.462c-.4214-.219-.8713-.3063-1.361-.347-.4714-.039-1.0505-.039-1.752-.039h-3.792Zm8.7532 4.8714v9.1286h.4165c.3641-1.1592 1.4471-2 2.7264-2 1.179 0 2.1912.7141 2.6276 1.7333a.8538.8538 0 0 0 .2262-.7189l-.2625-1.7325a12.0004 12.0004 0 0 0-1.9498-4.9624l-.5842-.8567a1.7142 1.7142 0 0 0-1.4164-.7486h-1.7838v.1572Zm-1.7143.1257c0-.7466-.0007-1.2541-.0332-1.6462-.0318-.3818-.0892-.5767-.1598-.7126a1.714 1.714 0 0 0-.731-.731c-.136-.0707-.3309-.1281-.7127-.1598-.392-.0326-.8996-.0333-1.6462-.0333h-3.72c-.7466 0-1.254.0007-1.6461.0333-.3819.0317-.5767.0891-.7127.1598a1.7143 1.7143 0 0 0-.731.731c-.0706.136-.128.3308-.1598.7126-.0325.392-.0332.8996-.0332 1.6462V15c0 .4253.0018.555.0147.6523a1.7143 1.7143 0 0 0 1.4097 1.4659c.3716-1.1464 1.4482-1.9753 2.7184-1.9753 1.2794 0 2.3623.8408 2.7264 2h3.4165V8.14Zm-5.1429 9.3063a1.1425 1.1425 0 0 0-1-.5892c-.6311 0-1.1428.5117-1.1428 1.1429s.5117 1.1429 1.1428 1.1429c.4303 0 .805-.2378 1-.5892v-1.1074Zm10.0001 1.6966c.4706 0 .8748-.2845 1.0499-.6908v-.9042c-.1751-.4063-.5793-.6908-1.0499-.6908-.6312 0-1.1429.5117-1.1429 1.1429s.5117 1.1429 1.1429 1.1429Z" fill="#0F1729" opacity=".72"/>
</svg>