<svg fill="none" xmlns="http://www.w3.org/2000/svg" viewBox="0 0 35 28">
  <path fill-rule="evenodd" clip-rule="evenodd" d="m31.1486 4.508 3.75 8.75c.0669.1554.1014.3228.1014.492v8.75a1.2501 1.2501 0 0 1-1.25 1.25h-2.6776a4.9762 4.9762 0 0 1-4.8224 3.7499 4.976 4.976 0 0 1-4.8224-3.7499h-7.8552a4.9998 4.9998 0 0 1-5.4713 3.7101 4.9999 4.9999 0 1 1 5.4713-6.2101h7.8552a4.991 4.991 0 0 1 2.3224-3.0548V2.5H5V0h20a1.25 1.25 0 0 1 1.25 1.25v2.5H30a1.248 1.248 0 0 1 1.1486.758ZM7.3611 24.5787A2.5 2.5 0 0 0 8.75 25a2.5027 2.5027 0 0 0 2.4999-2.5 2.4998 2.4998 0 0 0-2.9877-2.452 2.5005 2.5005 0 0 0-1.9642 1.9643 2.4998 2.4998 0 0 0 1.063 2.5664ZM29.176 6.25H26.25v6.25h5.6049L29.176 6.25Zm-4.3149 18.3287A2.5 2.5 0 0 0 26.25 25a2.5028 2.5028 0 0 0 2.5-2.5 2.4998 2.4998 0 0 0-2.9877-2.452 2.5008 2.5008 0 0 0-1.2801.6842 2.5006 2.5006 0 0 0 .3789 3.8465Zm6.2113-3.3287H32.5V15h-6.25v2.5a4.9945 4.9945 0 0 1 4.8224 3.75ZM12.5 6.25H0v2.5h12.5v-2.5Zm5 6.25h-15V15h15v-2.5Z" fill="#256CFA"/>
</svg>